<svg xmlns="http://www.w3.org/2000/svg" xmlns:xlink="http://www.w3.org/1999/xlink" width="500" zoomAndPan="magnify" viewBox="0 0 375 374.999991" height="500" preserveAspectRatio="xMidYMid meet" version="1.0"><defs><clipPath id="871a6cab90"><path d="M 19.359375 131 L 94 131 L 94 218 L 19.359375 218 Z M 19.359375 131 " clip-rule="nonzero"/></clipPath><clipPath id="c1fc188bc2"><path d="M 19.359375 48.09375 L 47 48.09375 L 47 80 L 19.359375 80 Z M 19.359375 48.09375 " clip-rule="nonzero"/></clipPath><clipPath id="4e0c4ce8c3"><path d="M 123 59 L 355 59 L 355 327.09375 L 123 327.09375 Z M 123 59 " clip-rule="nonzero"/></clipPath></defs><g clip-path="url(#871a6cab90)"><path fill="#db6913" d="M 93.769531 174.636719 L 19.753906 131.839844 L 19.753906 217.445312 Z M 93.769531 174.636719 " fill-opacity="1" fill-rule="nonzero"/></g><path fill="#db6913" d="M 119.675781 99.597656 L 77.203125 75.042969 L 77.203125 124.160156 Z M 119.675781 99.597656 " fill-opacity="1" fill-rule="nonzero"/><g clip-path="url(#c1fc188bc2)"><path fill="#db6913" d="M 46.855469 63.738281 L 19.753906 48.058594 L 19.753906 79.40625 Z M 46.855469 63.738281 " fill-opacity="1" fill-rule="nonzero"/></g><path fill="#db6913" d="M 64.925781 103.363281 L 37.820312 87.691406 L 37.820312 119.035156 Z M 64.925781 103.363281 " fill-opacity="1" fill-rule="nonzero"/><path fill="#db6913" d="M 119.675781 147.511719 L 92.574219 131.839844 L 92.574219 163.179688 Z M 119.675781 147.511719 " fill-opacity="1" fill-rule="nonzero"/><g clip-path="url(#4e0c4ce8c3)"><path fill="#f37515" d="M 175.300781 141.304688 L 202.398438 156.972656 L 175.300781 172.644531 Z M 139.777344 136.773438 L 139.777344 87.65625 L 182.25 112.210938 Z M 123.570312 59.542969 L 123.570312 164.871094 L 172.71875 193.289062 L 123.570312 221.710938 L 123.570312 327.039062 L 354.871094 193.289062 L 123.570312 59.542969 " fill-opacity="1" fill-rule="nonzero"/></g></svg>