<svg xmlns="http://www.w3.org/2000/svg" xmlns:xlink="http://www.w3.org/1999/xlink" width="500" zoomAndPan="magnify" viewBox="0 0 375 374.999991" height="500" preserveAspectRatio="xMidYMid meet" version="1.0"><defs><g/><clipPath id="87818501e4"><path d="M 127.605469 146 L 155 146 L 155 178 L 127.605469 178 Z M 127.605469 146 " clip-rule="nonzero"/></clipPath><clipPath id="6a4551bdd5"><path d="M 127.605469 116.511719 L 138 116.511719 L 138 128 L 127.605469 128 Z M 127.605469 116.511719 " clip-rule="nonzero"/></clipPath><clipPath id="aef09e894f"><path d="M 164 120 L 247.90625 120 L 247.90625 216.21875 L 164 216.21875 Z M 164 120 " clip-rule="nonzero"/></clipPath></defs><g fill="#ffffff" fill-opacity="1"><g transform="translate(116.647171, 250.540127)"><g><path d="M 8.320312 -20.457031 L 0.230469 0 L 5.519531 0 L 6.644531 -2.976562 L 13.550781 -2.976562 L 14.679688 0 L 20.253906 0 L 11.847656 -20.457031 Z M 10.113281 -12.308594 L 11.671875 -7.917969 L 11.789062 -7.570312 L 8.4375 -7.570312 L 8.609375 -8.03125 Z M 10.113281 -12.308594 "/></g></g></g><g fill="#ffffff" fill-opacity="1"><g transform="translate(139.759755, 250.540127)"><g><path d="M 12.25 -20.226562 L 12.25 -10.113281 L 5.257812 -20.226562 L 1.445312 -20.226562 L 1.445312 0 L 6.355469 0 L 6.355469 -9.851562 L 13.261719 0 L 17.132812 0 L 17.132812 -20.226562 Z M 12.25 -20.226562 "/></g></g></g><g fill="#ffffff" fill-opacity="1"><g transform="translate(161.312324, 250.540127)"><g><path d="M 12.886719 0 L 12.886719 -4.421875 L 9.535156 -4.421875 L 9.535156 -15.832031 L 12.886719 -15.832031 L 12.886719 -20.339844 L 1.242188 -20.339844 L 1.242188 -15.832031 L 4.59375 -15.832031 L 4.59375 -4.421875 L 1.242188 -4.421875 L 1.242188 0 Z M 12.886719 0 "/></g></g></g><g fill="#ffffff" fill-opacity="1"><g transform="translate(178.184818, 250.540127)"><g><path d="M 5.921875 -10.082031 C 5.921875 -13.925781 8.695312 -15.832031 11.472656 -15.832031 C 13.78125 -15.832031 16.121094 -14.503906 16.789062 -11.816406 L 21.785156 -11.816406 C 21.148438 -17.019531 16.671875 -20.542969 11.472656 -20.542969 C 5.691406 -20.542969 1.011719 -16.035156 1.011719 -10.082031 C 1.011719 -4.132812 5.691406 0.289062 11.472656 0.289062 C 16.730469 0.289062 21.0625 -3.207031 21.816406 -8.496094 L 16.816406 -8.496094 C 16.179688 -5.75 13.839844 -4.363281 11.472656 -4.363281 C 8.695312 -4.363281 5.921875 -6.269531 5.921875 -10.082031 Z M 5.921875 -10.082031 "/></g></g></g><g fill="#ffffff" fill-opacity="1"><g transform="translate(203.810782, 250.540127)"><g><path d="M 12.886719 0 L 12.886719 -4.421875 L 9.535156 -4.421875 L 9.535156 -15.832031 L 12.886719 -15.832031 L 12.886719 -20.339844 L 1.242188 -20.339844 L 1.242188 -15.832031 L 4.59375 -15.832031 L 4.59375 -4.421875 L 1.242188 -4.421875 L 1.242188 0 Z M 12.886719 0 "/></g></g></g><g fill="#ffffff" fill-opacity="1"><g transform="translate(220.683276, 250.540127)"><g><path d="M 12.25 -20.226562 L 12.25 -10.113281 L 5.257812 -20.226562 L 1.445312 -20.226562 L 1.445312 0 L 6.355469 0 L 6.355469 -9.851562 L 13.261719 0 L 17.132812 0 L 17.132812 -20.226562 Z M 12.25 -20.226562 "/></g></g></g><g fill="#ffffff" fill-opacity="1"><g transform="translate(242.235843, 250.540127)"><g><path d="M 1.445312 -20.398438 L 1.445312 0 L 14.792969 0 L 14.792969 -4.765625 L 6.414062 -4.765625 L 6.414062 -8.003906 L 14.589844 -8.003906 L 14.589844 -12.800781 L 6.414062 -12.800781 L 6.414062 -15.632812 L 14.765625 -15.632812 L 14.765625 -20.398438 Z M 1.445312 -20.398438 "/></g></g></g><g clip-path="url(#87818501e4)"><path fill="#db6913" d="M 154.25 161.734375 L 127.75 146.441406 L 127.75 177.03125 Z M 154.25 161.734375 " fill-opacity="1" fill-rule="nonzero"/></g><path fill="#db6913" d="M 163.523438 134.917969 L 148.316406 126.144531 L 148.316406 143.695312 Z M 163.523438 134.917969 " fill-opacity="1" fill-rule="nonzero"/><g clip-path="url(#6a4551bdd5)"><path fill="#db6913" d="M 137.453125 122.101562 L 127.75 116.5 L 127.75 127.703125 Z M 137.453125 122.101562 " fill-opacity="1" fill-rule="nonzero"/></g><path fill="#db6913" d="M 143.921875 136.265625 L 134.21875 130.664062 L 134.21875 141.863281 Z M 143.921875 136.265625 " fill-opacity="1" fill-rule="nonzero"/><path fill="#db6913" d="M 163.523438 152.042969 L 153.820312 146.441406 L 153.820312 157.640625 Z M 163.523438 152.042969 " fill-opacity="1" fill-rule="nonzero"/><g clip-path="url(#aef09e894f)"><path fill="#f37515" d="M 183.4375 149.824219 L 193.140625 155.421875 L 183.4375 161.023438 Z M 170.722656 148.203125 L 170.722656 130.648438 L 185.929688 139.425781 Z M 164.917969 120.601562 L 164.917969 158.246094 L 182.515625 168.402344 L 164.917969 178.558594 L 164.917969 216.199219 L 247.730469 168.402344 L 164.917969 120.601562 " fill-opacity="1" fill-rule="nonzero"/></g></svg>