<svg xmlns="http://www.w3.org/2000/svg" xmlns:xlink="http://www.w3.org/1999/xlink" width="500" zoomAndPan="magnify" viewBox="0 0 375 374.999991" height="500" preserveAspectRatio="xMidYMid meet" version="1.0"><defs><g/><clipPath id="d9fc5e47ce"><path d="M 37.5 167 L 65 167 L 65 198 L 37.5 198 Z M 37.5 167 " clip-rule="nonzero"/></clipPath><clipPath id="276f5b5501"><path d="M 37.5 137.84375 L 48 137.84375 L 48 149 L 37.5 149 Z M 37.5 137.84375 " clip-rule="nonzero"/></clipPath><clipPath id="c8ea5f13fb"><path d="M 74 141 L 157.5 141 L 157.5 236.84375 L 74 236.84375 Z M 74 141 " clip-rule="nonzero"/></clipPath></defs><g fill="#ffffff" fill-opacity="1"><g transform="translate(191.10939, 196.712131)"><g><path d="M 8.320312 -20.457031 L 0.230469 0 L 5.519531 0 L 6.644531 -2.976562 L 13.550781 -2.976562 L 14.679688 0 L 20.253906 0 L 11.847656 -20.457031 Z M 10.113281 -12.308594 L 11.671875 -7.917969 L 11.789062 -7.570312 L 8.4375 -7.570312 L 8.609375 -8.03125 Z M 10.113281 -12.308594 "/></g></g></g><g fill="#ffffff" fill-opacity="1"><g transform="translate(214.221973, 196.712131)"><g><path d="M 12.25 -20.226562 L 12.25 -10.113281 L 5.257812 -20.226562 L 1.445312 -20.226562 L 1.445312 0 L 6.355469 0 L 6.355469 -9.851562 L 13.261719 0 L 17.132812 0 L 17.132812 -20.226562 Z M 12.25 -20.226562 "/></g></g></g><g fill="#ffffff" fill-opacity="1"><g transform="translate(235.774543, 196.712131)"><g><path d="M 12.886719 0 L 12.886719 -4.421875 L 9.535156 -4.421875 L 9.535156 -15.832031 L 12.886719 -15.832031 L 12.886719 -20.339844 L 1.242188 -20.339844 L 1.242188 -15.832031 L 4.59375 -15.832031 L 4.59375 -4.421875 L 1.242188 -4.421875 L 1.242188 0 Z M 12.886719 0 "/></g></g></g><g fill="#ffffff" fill-opacity="1"><g transform="translate(252.647036, 196.712131)"><g><path d="M 5.921875 -10.082031 C 5.921875 -13.925781 8.695312 -15.832031 11.472656 -15.832031 C 13.78125 -15.832031 16.121094 -14.503906 16.789062 -11.816406 L 21.785156 -11.816406 C 21.148438 -17.019531 16.671875 -20.542969 11.472656 -20.542969 C 5.691406 -20.542969 1.011719 -16.035156 1.011719 -10.082031 C 1.011719 -4.132812 5.691406 0.289062 11.472656 0.289062 C 16.730469 0.289062 21.0625 -3.207031 21.816406 -8.496094 L 16.816406 -8.496094 C 16.179688 -5.75 13.839844 -4.363281 11.472656 -4.363281 C 8.695312 -4.363281 5.921875 -6.269531 5.921875 -10.082031 Z M 5.921875 -10.082031 "/></g></g></g><g fill="#ffffff" fill-opacity="1"><g transform="translate(278.273, 196.712131)"><g><path d="M 12.886719 0 L 12.886719 -4.421875 L 9.535156 -4.421875 L 9.535156 -15.832031 L 12.886719 -15.832031 L 12.886719 -20.339844 L 1.242188 -20.339844 L 1.242188 -15.832031 L 4.59375 -15.832031 L 4.59375 -4.421875 L 1.242188 -4.421875 L 1.242188 0 Z M 12.886719 0 "/></g></g></g><g fill="#ffffff" fill-opacity="1"><g transform="translate(295.145494, 196.712131)"><g><path d="M 12.25 -20.226562 L 12.25 -10.113281 L 5.257812 -20.226562 L 1.445312 -20.226562 L 1.445312 0 L 6.355469 0 L 6.355469 -9.851562 L 13.261719 0 L 17.132812 0 L 17.132812 -20.226562 Z M 12.25 -20.226562 "/></g></g></g><g fill="#ffffff" fill-opacity="1"><g transform="translate(316.698062, 196.712131)"><g><path d="M 1.445312 -20.398438 L 1.445312 0 L 14.792969 0 L 14.792969 -4.765625 L 6.414062 -4.765625 L 6.414062 -8.003906 L 14.589844 -8.003906 L 14.589844 -12.800781 L 6.414062 -12.800781 L 6.414062 -15.632812 L 14.765625 -15.632812 L 14.765625 -20.398438 Z M 1.445312 -20.398438 "/></g></g></g><g clip-path="url(#d9fc5e47ce)"><path fill="#db6913" d="M 64.074219 182.746094 L 37.640625 167.558594 L 37.640625 197.933594 Z M 64.074219 182.746094 " fill-opacity="1" fill-rule="nonzero"/></g><path fill="#db6913" d="M 73.328125 156.117188 L 58.15625 147.40625 L 58.15625 164.835938 Z M 73.328125 156.117188 " fill-opacity="1" fill-rule="nonzero"/><g clip-path="url(#276f5b5501)"><path fill="#db6913" d="M 47.320312 143.394531 L 37.640625 137.828125 L 37.640625 148.953125 Z M 47.320312 143.394531 " fill-opacity="1" fill-rule="nonzero"/></g><path fill="#db6913" d="M 53.773438 157.457031 L 44.09375 151.894531 L 44.09375 163.015625 Z M 53.773438 157.457031 " fill-opacity="1" fill-rule="nonzero"/><path fill="#db6913" d="M 73.328125 173.121094 L 63.648438 167.558594 L 63.648438 178.679688 Z M 73.328125 173.121094 " fill-opacity="1" fill-rule="nonzero"/><g clip-path="url(#c8ea5f13fb)"><path fill="#f37515" d="M 93.191406 170.917969 L 102.871094 176.476562 L 93.191406 182.039062 Z M 80.507812 169.308594 L 80.507812 151.882812 L 95.675781 160.59375 Z M 74.71875 141.90625 L 74.71875 179.28125 L 92.269531 189.363281 L 74.71875 199.449219 L 74.71875 236.824219 L 157.328125 189.363281 L 74.71875 141.90625 " fill-opacity="1" fill-rule="nonzero"/></g></svg>